<svg id="Layer_1" data-name="Layer 1" xmlns="http://www.w3.org/2000/svg" viewBox="0 0 78.1 302.68"><defs><style>.cls-1{fill:#fff}</style></defs><path class="cls-1" d="M418.82 145.35s-5.32.5-6 4-2 2.27-.22 9.64c.38.78.88.28.88.28l.22 3.05a34.63 34.63 0 00-2.88 2.55c-.16.33-9.42 3.66-9.42 3.66l.44-2.06s-8.14 1.22-10.36 11.14a15 15 0 001.16 4.6l2.22-1.94a63 63 0 00-2.49 15.08 7.89 7.89 0 000 1.83s-6.65 3.66-4.83 22.28c0 0-5.09 2.44-4.76 10.09 0 0-3.27 6.37-3 7.31s1.78 1.55 3.27 1.06 4.11-7.27 4.94-7.65a20.39 20.39 0 002.82-2.22c.5-.39 4.66 1.05 5.38 1.11s2.44-.78 0-2.11-3.6-2.1-3.6-2.1 2.77-9.2 4.82-11.81 3.88-10.47 3.49-15.07a15.71 15.71 0 011.94-8.48s1.16 8.48 2.05 10 .61 8.09.61 8.09-2.1 4.88-2.44 5.38-.39 4.1 1.22 5.48a4.8 4.8 0 00-2.94 3.38c-.38 2.44-3.93 23.95 3.77 38.3 0 0-4.6 7.26 1.61 22.89a38.26 38.26 0 011.55 18.68l1 .28s-1.05 6.2-2.05 7.92 1.44 5.43 4.77 5.32 7-1.38 6.81-6.65-.61-6.54-.61-6.54a9.08 9.08 0 000-6.21c-1.28-3.21-.89-13.69-.61-15s.55-12-3.16-18.06l-.89-2.66s2.77-.95 2.39-12.42c0 0 3.82-13.41.94-18.73a13.53 13.53 0 012 0 13.53 13.53 0 012 0c-2.88 5.32.94 18.73.94 18.73-.38 11.47 2.39 12.42 2.39 12.42l-.89 2.66c-3.71 6-3.44 16.73-3.16 18.06s.67 11.81-.61 15a9.08 9.08 0 000 6.21s-.45 1.28-.61 6.54 3.49 6.54 6.81 6.65 5.77-3.6 4.77-5.32-2.05-7.92-2.05-7.92l1-.28a38.26 38.26 0 011.55-18.68c6.21-15.63 1.61-22.89 1.61-22.89 7.7-14.35 4.15-35.86 3.76-38.3a4.77 4.77 0 00-2.93-3.38c1.6-1.38 1.55-5 1.22-5.48s-2.44-5.38-2.44-5.38-.28-6.54.61-8.09 2.05-10 2.05-10a15.71 15.71 0 011.94 8.48c-.39 4.6 1.44 12.47 3.49 15.07s4.82 11.81 4.82 11.81-1.16.77-3.6 2.1-.72 2.16 0 2.11 4.88-1.5 5.37-1.11a21.15 21.15 0 002.83 2.22c.83.38 3.44 7.15 4.93 7.65s3-.12 3.27-1.06-3-7.31-3-7.31c.33-7.65-4.77-10.09-4.77-10.09 1.83-18.62-4.82-22.28-4.82-22.28a7.89 7.89 0 000-1.83 63 63 0 00-2.49-15.08l2.15 1.93a15 15 0 001.16-4.6c-2.22-9.92-10.36-11.14-10.36-11.14l.44 2.06s-9.26-3.33-9.42-3.66a34.62 34.62 0 00-2.89-2.55l.23-3.05s.5.5.88-.28c1.83-7.37.45-6.15-.22-9.64s-6-4-6-4" transform="translate(-379.79 -145.35)"/><circle class="cls-1" cx="39.08" cy="187.39" r="10.53"/><path class="cls-1" d="M34.16 187.99h9.79l-4.9 114.69-4.89-114.69z"/><circle class="cls-1" cx="10.73" cy="94.47" r="4.87"/><path class="cls-1" d="M8.45 94.75h4.53l-2.27 53.02-2.26-53.02z"/><circle class="cls-1" cx="67.67" cy="94.47" r="4.87"/><path class="cls-1" d="M65.4 94.75h4.52l-2.26 53.02-2.26-53.02z"/></svg>